<?xml version="1.0" encoding="UTF-8"?>
<svg xmlns="http://www.w3.org/2000/svg" xmlns:xlink="http://www.w3.org/1999/xlink" width="245pt" height="173pt" viewBox="0 0 245 173" version="1.1">
<defs>
<filter id="alpha" filterUnits="objectBoundingBox" x="0%" y="0%" width="100%" height="100%">
  <feColorMatrix type="matrix" in="SourceGraphic" values="0 0 0 0 1 0 0 0 0 1 0 0 0 0 1 0 0 0 1 0"/>
</filter>
<mask id="mask0">
  <g filter="url(#alpha)">
<rect x="0" y="0" width="245" height="173" style="fill:rgb(0%,0%,0%);fill-opacity:0.2;stroke:none;"/>
  </g>
</mask>
<clipPath id="clip1">
  <rect x="0" y="0" width="245" height="173"/>
</clipPath>
<g id="surface5" clip-path="url(#clip1)">
<path style=" stroke:none;fill-rule:nonzero;fill:rgb(42.352941%,38.823529%,100%);fill-opacity:1;" d="M 73.894531 11.5625 C 70.878906 11.957031 67.601562 12.621094 65.609375 15.265625 C 63.253906 18.390625 63.570312 23.140625 64.636719 27.097656 C 65.703125 31.054688 67.390625 34.910156 67.375 39.054688 C 67.328125 45.644531 62.84375 51.234375 57.742188 54.183594 C 52.640625 57.132812 46.882812 58.082031 41.375 59.804688 C 36.242188 61.414062 31.328125 63.675781 26.757812 66.527344 C 22.878906 68.941406 18.980469 72.097656 17.429688 76.859375 C 14.882812 84.671875 19.566406 92.960938 24.1875 99.375 C 38.367188 119.039062 56.441406 137.90625 78.53125 139.816406 C 95.035156 141.230469 111.554688 132.851562 127.878906 135.925781 C 135.378906 137.335938 142.367188 141.082031 149.40625 144.386719 C 156.445312 147.6875 163.847656 150.628906 171.4375 150.253906 C 179.027344 149.878906 186.894531 145.558594 190.183594 137.648438 C 192.128906 132.972656 192.324219 127.550781 194.121094 122.796875 C 199.621094 108.214844 216.769531 105.847656 226.71875 94.875 C 231.941406 89.109375 234.925781 81.195312 237.414062 73.351562 C 241.429688 60.589844 244.441406 47.140625 243.769531 33.570312 C 243.476562 27.664062 242.378906 21.53125 239.113281 16.972656 C 236.738281 13.65625 233.421875 11.453125 230.183594 9.324219 C 222.8125 4.476562 214.894531 -0.527344 206.425781 0.046875 C 201.546875 0.378906 196.929688 2.558594 192.273438 4.265625 C 183.402344 7.511719 174.152344 9.121094 164.945312 10.703125 C 149.734375 13.324219 134.308594 15.945312 118.890625 14.640625 C 112.082031 14.058594 105.652344 11.734375 98.957031 10.785156 C 90.808594 9.628906 82.007812 10.503906 73.894531 11.5625 Z M 73.894531 11.5625 "/>
</g>
<mask id="mask1">
  <g filter="url(#alpha)">
<rect x="0" y="0" width="245" height="173" style="fill:rgb(0%,0%,0%);fill-opacity:0.501961;stroke:none;"/>
  </g>
</mask>
<clipPath id="clip2">
  <rect x="0" y="0" width="245" height="173"/>
</clipPath>
<g id="surface8" clip-path="url(#clip2)">
<path style=" stroke:none;fill-rule:nonzero;fill:rgb(42.352941%,38.823529%,100%);fill-opacity:1;" d="M 206.199219 42.429688 C 206.199219 47.671875 201.964844 51.917969 196.746094 51.917969 C 191.527344 51.917969 187.292969 47.671875 187.292969 42.429688 C 187.292969 37.191406 191.527344 32.945312 196.746094 32.945312 C 201.964844 32.945312 206.199219 37.191406 206.199219 42.429688 Z M 206.199219 42.429688 "/>
</g>
<mask id="mask2">
  <g filter="url(#alpha)">
<rect x="0" y="0" width="245" height="173" style="fill:rgb(0%,0%,0%);fill-opacity:0.2;stroke:none;"/>
  </g>
</mask>
<clipPath id="clip3">
  <rect x="0" y="0" width="245" height="173"/>
</clipPath>
<g id="surface11" clip-path="url(#clip3)">
<path style=" stroke:none;fill-rule:nonzero;fill:rgb(0%,0%,0%);fill-opacity:1;" d="M 166.980469 75.921875 L 80.488281 75.921875 L 85.429688 60.65625 L 88.082031 60.65625 L 88.609375 64.613281 L 157.097656 64.613281 L 157.449219 60.65625 L 160.625 60.65625 Z M 166.980469 75.921875 "/>
</g>
<mask id="mask3">
  <g filter="url(#alpha)">
<rect x="0" y="0" width="245" height="173" style="fill:rgb(0%,0%,0%);fill-opacity:0.2;stroke:none;"/>
  </g>
</mask>
<clipPath id="clip4">
  <rect x="0" y="0" width="245" height="173"/>
</clipPath>
<g id="surface14" clip-path="url(#clip4)">
<path style=" stroke:none;fill-rule:nonzero;fill:rgb(0%,0%,0%);fill-opacity:1;" d="M 69.546875 94.015625 L 177.21875 94.015625 L 177.21875 110.976562 L 69.546875 110.976562 Z M 69.546875 94.015625 "/>
</g>
<mask id="mask4">
  <g filter="url(#alpha)">
<rect x="0" y="0" width="245" height="173" style="fill:rgb(0%,0%,0%);fill-opacity:0.2;stroke:none;"/>
  </g>
</mask>
<clipPath id="clip5">
  <rect x="0" y="0" width="245" height="173"/>
</clipPath>
<g id="surface17" clip-path="url(#clip5)">
<path style=" stroke:none;fill-rule:nonzero;fill:rgb(0%,0%,0%);fill-opacity:1;" d="M 69.394531 138.683594 L 72.523438 138.683594 C 74.585938 138.683594 76.257812 140.359375 76.257812 142.425781 L 76.257812 149.992188 L 65.664062 149.992188 L 65.664062 142.425781 C 65.664062 140.359375 67.335938 138.683594 69.394531 138.683594 Z M 69.394531 138.683594 "/>
<path style=" stroke:none;fill-rule:nonzero;fill:rgb(0%,0%,0%);fill-opacity:1;" d="M 92.339844 138.683594 L 95.46875 138.683594 C 97.53125 138.683594 99.203125 140.359375 99.203125 142.425781 L 99.203125 149.992188 L 88.609375 149.992188 L 88.609375 142.425781 C 88.609375 140.359375 90.28125 138.683594 92.339844 138.683594 Z M 92.339844 138.683594 "/>
<path style=" stroke:none;fill-rule:nonzero;fill:rgb(0%,0%,0%);fill-opacity:1;" d="M 120.933594 138.683594 L 124.066406 138.683594 C 126.125 138.683594 127.796875 140.359375 127.796875 142.425781 L 127.796875 149.992188 L 117.203125 149.992188 L 117.203125 142.425781 C 117.203125 140.359375 118.875 138.683594 120.933594 138.683594 Z M 120.933594 138.683594 "/>
<path style=" stroke:none;fill-rule:nonzero;fill:rgb(0%,0%,0%);fill-opacity:1;" d="M 150.589844 138.683594 L 153.714844 138.683594 C 155.777344 138.683594 157.445312 140.359375 157.445312 142.425781 L 157.445312 149.992188 L 146.859375 149.992188 L 146.859375 142.425781 C 146.859375 140.359375 148.527344 138.683594 150.589844 138.683594 Z M 150.589844 138.683594 "/>
<path style=" stroke:none;fill-rule:nonzero;fill:rgb(0%,0%,0%);fill-opacity:1;" d="M 174.242188 138.683594 L 177.371094 138.683594 C 179.433594 138.683594 181.101562 140.359375 181.101562 142.425781 L 181.101562 149.992188 L 170.511719 149.992188 L 170.511719 142.425781 C 170.511719 140.359375 172.183594 138.683594 174.242188 138.683594 Z M 174.242188 138.683594 "/>
</g>
<mask id="mask5">
  <g filter="url(#alpha)">
<rect x="0" y="0" width="245" height="173" style="fill:rgb(0%,0%,0%);fill-opacity:0.2;stroke:none;"/>
  </g>
</mask>
<clipPath id="clip6">
  <rect x="0" y="0" width="245" height="173"/>
</clipPath>
<g id="surface20" clip-path="url(#clip6)">
<path style=" stroke:none;fill-rule:nonzero;fill:rgb(0%,0%,0%);fill-opacity:1;" d="M 116.851562 110.976562 L 128.148438 110.976562 L 128.148438 133.59375 L 116.851562 133.59375 Z M 116.851562 110.976562 "/>
</g>
<mask id="mask6">
  <g filter="url(#alpha)">
<rect x="0" y="0" width="245" height="173" style="fill:rgb(0%,0%,0%);fill-opacity:0.2;stroke:none;"/>
  </g>
</mask>
<clipPath id="clip7">
  <rect x="0" y="0" width="245" height="173"/>
</clipPath>
<g id="surface23" clip-path="url(#clip7)">
<path style=" stroke:none;fill-rule:nonzero;fill:rgb(0%,0%,0%);fill-opacity:1;" d="M 183.925781 89.492188 L 62.839844 89.492188 L 61.425781 85.535156 L 184.984375 85.535156 Z M 183.925781 89.492188 "/>
</g>
<mask id="mask7">
  <g filter="url(#alpha)">
<rect x="0" y="0" width="245" height="173" style="fill:rgb(0%,0%,0%);fill-opacity:0.2;stroke:none;"/>
  </g>
</mask>
<clipPath id="clip8">
  <rect x="0" y="0" width="245" height="173"/>
</clipPath>
<g id="surface26" clip-path="url(#clip8)">
<path style=" stroke:none;fill-rule:nonzero;fill:rgb(0%,0%,0%);fill-opacity:1;" d="M 125.324219 83.835938 C 125.324219 81.339844 124.058594 79.3125 122.5 79.3125 C 120.941406 79.3125 119.675781 81.339844 119.675781 83.835938 C 119.675781 86.335938 120.941406 88.359375 122.5 88.359375 C 124.058594 88.359375 125.324219 86.335938 125.324219 83.835938 Z M 125.324219 83.835938 "/>
</g>
<linearGradient id="linear0" gradientUnits="userSpaceOnUse" x1="599.51" y1="796.49" x2="599.51" y2="363.49" gradientTransform="matrix(0.248731,0,0,0.249639,-26.738579,-25.840159)">
<stop offset="0" style="stop-color:rgb(50.196078%,50.196078%,50.196078%);stop-opacity:0.25098;"/>
<stop offset="0.54" style="stop-color:rgb(50.196078%,50.196078%,50.196078%);stop-opacity:0.121569;"/>
<stop offset="1" style="stop-color:rgb(50.196078%,50.196078%,50.196078%);stop-opacity:0.101961;"/>
</linearGradient>
<mask id="mask8">
  <g filter="url(#alpha)">
<rect x="0" y="0" width="245" height="173" style="fill:rgb(0%,0%,0%);fill-opacity:0.0509804;stroke:none;"/>
  </g>
</mask>
<clipPath id="clip9">
  <rect x="0" y="0" width="245" height="173"/>
</clipPath>
<g id="surface29" clip-path="url(#clip9)">
<path style=" stroke:none;fill-rule:nonzero;fill:rgb(0%,0%,0%);fill-opacity:1;" d="M 88.867188 159.058594 L 89.820312 170.386719 L 156.453125 169.988281 L 155.183594 157.625 L 132.65625 154.992188 L 93.152344 157.386719 Z M 88.867188 159.058594 "/>
</g>
<mask id="mask9">
  <g filter="url(#alpha)">
<rect x="0" y="0" width="245" height="173" style="fill:rgb(0%,0%,0%);fill-opacity:0.101961;stroke:none;"/>
  </g>
</mask>
<clipPath id="clip10">
  <rect x="0" y="0" width="245" height="173"/>
</clipPath>
<g id="surface32" clip-path="url(#clip10)">
<path style=" stroke:none;fill-rule:nonzero;fill:rgb(0%,0%,0%);fill-opacity:1;" d="M 132.714844 166.980469 L 110.53125 169.0625 C 110.53125 169.0625 125.730469 172.949219 134.601562 171.058594 Z M 132.714844 166.980469 "/>
</g>
<mask id="mask10">
  <g filter="url(#alpha)">
<rect x="0" y="0" width="245" height="173" style="fill:rgb(0%,0%,0%);fill-opacity:0.101961;stroke:none;"/>
  </g>
</mask>
<clipPath id="clip11">
  <rect x="0" y="0" width="245" height="173"/>
</clipPath>
<g id="surface35" clip-path="url(#clip11)">
<path style=" stroke:none;fill-rule:nonzero;fill:rgb(0%,0%,0%);fill-opacity:1;" d="M 129.886719 92.726562 C 129.527344 90.027344 129.316406 87.828125 129.316406 87.828125 L 116.101562 87.828125 C 116.710938 89.566406 117.132812 91.363281 117.363281 93.191406 C 121.171875 95.867188 126.285156 95.675781 129.886719 92.726562 Z M 129.886719 92.726562 "/>
</g>
<mask id="mask11">
  <g filter="url(#alpha)">
<rect x="0" y="0" width="245" height="173" style="fill:rgb(0%,0%,0%);fill-opacity:0.101961;stroke:none;"/>
  </g>
</mask>
<clipPath id="clip12">
  <rect x="0" y="0" width="245" height="173"/>
</clipPath>
<g id="surface38" clip-path="url(#clip12)">
<path style=" stroke:none;fill-rule:nonzero;fill:rgb(0%,0%,0%);fill-opacity:1;" d="M 108.597656 104.59375 L 110.53125 117.429688 C 110.53125 117.429688 108.542969 123.398438 110.53125 129.273438 C 112.519531 135.148438 108.074219 157.03125 108.074219 157.03125 C 108.074219 157.03125 131.386719 164.519531 145.632812 155.894531 C 145.632812 155.894531 135.15625 133.726562 139.589844 126.335938 C 144.023438 118.949219 139.664062 116.058594 139.664062 116.058594 L 140.359375 102.472656 L 137.148438 101.527344 L 135.261719 114.957031 C 135.261719 114.957031 122.238281 124.050781 112.609375 116.09375 L 110.53125 101.503906 Z M 108.597656 104.59375 "/>
</g>
<mask id="mask12">
  <g filter="url(#alpha)">
<rect x="0" y="0" width="245" height="173" style="fill:rgb(0%,0%,0%);fill-opacity:0.0705882;stroke:none;"/>
  </g>
</mask>
<clipPath id="clip13">
  <rect x="0" y="0" width="245" height="173"/>
</clipPath>
<g id="surface41" clip-path="url(#clip13)">
<path style=" stroke:none;fill-rule:nonzero;fill:rgb(100%,100%,100%);fill-opacity:1;" d="M 122.0625 119.851562 C 119.972656 116.5 115.6875 115.289062 112.164062 117.058594 C 115.328125 119.433594 118.8125 120.066406 122.0625 119.851562 Z M 122.0625 119.851562 "/>
</g>
<mask id="mask13">
  <g filter="url(#alpha)">
<rect x="0" y="0" width="245" height="173" style="fill:rgb(0%,0%,0%);fill-opacity:0.0705882;stroke:none;"/>
  </g>
</mask>
<clipPath id="clip14">
  <rect x="0" y="0" width="245" height="173"/>
</clipPath>
<g id="surface44" clip-path="url(#clip14)">
<path style=" stroke:none;fill-rule:nonzero;fill:rgb(100%,100%,100%);fill-opacity:1;" d="M 127.414062 118.429688 C 129.5 115.078125 133.785156 113.867188 137.308594 115.636719 C 134.152344 118.007812 130.664062 118.644531 127.414062 118.429688 Z M 127.414062 118.429688 "/>
</g>
<mask id="mask14">
  <g filter="url(#alpha)">
<rect x="0" y="0" width="245" height="173" style="fill:rgb(0%,0%,0%);fill-opacity:0.101961;stroke:none;"/>
  </g>
</mask>
<clipPath id="clip15">
  <rect x="0" y="0" width="245" height="173"/>
</clipPath>
<g id="surface47" clip-path="url(#clip15)">
<path style=" stroke:none;fill-rule:nonzero;fill:rgb(0%,0%,0%);fill-opacity:1;" d="M 108.597656 104.59375 L 110.53125 116.765625 C 110.53125 116.765625 108.542969 122.734375 110.53125 128.609375 C 112.519531 134.484375 108.074219 156.367188 108.074219 156.367188 C 108.074219 156.367188 131.386719 163.855469 145.632812 155.230469 C 145.632812 155.230469 135.15625 133.0625 139.589844 125.671875 C 144.023438 118.285156 139.664062 115.394531 139.664062 115.394531 L 140.34375 101.800781 L 137.136719 100.855469 L 135.246094 114.308594 C 135.246094 114.308594 122.222656 123.402344 112.59375 115.441406 L 110.515625 100.855469 Z M 108.597656 104.59375 "/>
</g>
<mask id="mask15">
  <g filter="url(#alpha)">
<rect x="0" y="0" width="245" height="173" style="fill:rgb(0%,0%,0%);fill-opacity:0.101961;stroke:none;"/>
  </g>
</mask>
<clipPath id="clip16">
  <rect x="0" y="0" width="245" height="173"/>
</clipPath>
<g id="surface50" clip-path="url(#clip16)">
<path style=" stroke:none;fill-rule:nonzero;fill:rgb(0%,0%,0%);fill-opacity:1;" d="M 112.65625 130.265625 C 112.65625 130.265625 121.527344 131.59375 123.039062 129.226562 "/>
</g>
<mask id="mask16">
  <g filter="url(#alpha)">
<rect x="0" y="0" width="245" height="173" style="fill:rgb(0%,0%,0%);fill-opacity:0.101961;stroke:none;"/>
  </g>
</mask>
<clipPath id="clip17">
  <rect x="0" y="0" width="245" height="173"/>
</clipPath>
<g id="surface53" clip-path="url(#clip17)">
<path style=" stroke:none;fill-rule:nonzero;fill:rgb(0%,0%,0%);fill-opacity:1;" d="M 129.464844 128.75 C 129.464844 128.75 131.164062 130.457031 137.957031 129.226562 "/>
</g>
<mask id="mask17">
  <g filter="url(#alpha)">
<rect x="0" y="0" width="245" height="173" style="fill:rgb(0%,0%,0%);fill-opacity:0.101961;stroke:none;"/>
  </g>
</mask>
<clipPath id="clip18">
  <rect x="0" y="0" width="245" height="173"/>
</clipPath>
<g id="surface56" clip-path="url(#clip18)">
<path style=" stroke:none;fill-rule:nonzero;fill:rgb(0%,0%,0%);fill-opacity:1;" d="M 112.183594 102.320312 C 112.183594 102.320312 118.695312 103.265625 119.921875 102.699219 "/>
</g>
<mask id="mask18">
  <g filter="url(#alpha)">
<rect x="0" y="0" width="245" height="173" style="fill:rgb(0%,0%,0%);fill-opacity:0.101961;stroke:none;"/>
  </g>
</mask>
<clipPath id="clip19">
  <rect x="0" y="0" width="245" height="173"/>
</clipPath>
<g id="surface59" clip-path="url(#clip19)">
<path style=" stroke:none;fill-rule:nonzero;fill:rgb(0%,0%,0%);fill-opacity:1;" d="M 126.53125 102.320312 C 126.53125 102.320312 133.042969 103.265625 134.273438 102.699219 "/>
</g>
<mask id="mask19">
  <g filter="url(#alpha)">
<rect x="0" y="0" width="245" height="173" style="fill:rgb(0%,0%,0%);fill-opacity:0.101961;stroke:none;"/>
  </g>
</mask>
<clipPath id="clip20">
  <rect x="0" y="0" width="245" height="173"/>
</clipPath>
<g id="surface62" clip-path="url(#clip20)">
<path style=" stroke:none;fill-rule:nonzero;fill:rgb(0%,0%,0%);fill-opacity:1;" d="M 118.792969 160.488281 C 118.792969 160.488281 120.585938 168.976562 118.792969 169.273438 C 117 169.574219 114.449219 167.878906 114.449219 167.6875 C 114.449219 167.496094 115.582031 162.097656 115.582031 162.097656 Z M 118.792969 160.488281 "/>
</g>
<mask id="mask20">
  <g filter="url(#alpha)">
<rect x="0" y="0" width="245" height="173" style="fill:rgb(0%,0%,0%);fill-opacity:0.101961;stroke:none;"/>
  </g>
</mask>
<clipPath id="clip21">
  <rect x="0" y="0" width="245" height="173"/>
</clipPath>
<g id="surface65" clip-path="url(#clip21)">
<path style=" stroke:none;fill-rule:nonzero;fill:rgb(0%,0%,0%);fill-opacity:1;" d="M 109.839844 101.078125 C 109.046875 102.921875 108.765625 105.101562 109.609375 106.921875 C 110.25 108.3125 111.503906 109.4375 111.746094 110.953125 C 112.046875 112.847656 110.648438 114.777344 111.171875 116.625 C 111.371094 117.335938 111.835938 117.933594 112.308594 118.496094 C 113.746094 120.203125 115.65625 121.851562 117.875 121.71875 C 118.222656 118.277344 115.261719 114.941406 116.230469 111.625 C 116.582031 110.433594 117.394531 109.445312 117.886719 108.3125 C 118.707031 106.433594 118.589844 104.285156 118.292969 102.257812 C 117.863281 99.3125 116.773438 95.703125 113.867188 94.324219 C 112.527344 93.691406 110.632812 93.644531 110.15625 95.363281 C 109.90625 96.285156 110.503906 97.148438 110.585938 98.046875 C 110.691406 99.1875 110.28125 100.054688 109.839844 101.078125 Z M 109.839844 101.078125 "/>
</g>
<mask id="mask21">
  <g filter="url(#alpha)">
<rect x="0" y="0" width="245" height="173" style="fill:rgb(0%,0%,0%);fill-opacity:0.101961;stroke:none;"/>
  </g>
</mask>
<clipPath id="clip22">
  <rect x="0" y="0" width="245" height="173"/>
</clipPath>
<g id="surface68" clip-path="url(#clip22)">
<path style=" stroke:none;fill-rule:nonzero;fill:rgb(0%,0%,0%);fill-opacity:1;" d="M 110.578125 78.921875 C 110.578125 78.921875 124.359375 77.027344 124.734375 79.867188 C 125.113281 82.707031 137.289062 87.355469 137.289062 87.355469 L 134.269531 79.867188 L 128.699219 70.582031 C 128.699219 70.582031 118.503906 69.835938 118.035156 70.582031 C 117.566406 71.332031 112.183594 73.804688 112.183594 73.804688 Z M 110.578125 78.921875 "/>
</g>
<mask id="mask22">
  <g filter="url(#alpha)">
<rect x="0" y="0" width="245" height="173" style="fill:rgb(0%,0%,0%);fill-opacity:0.101961;stroke:none;"/>
  </g>
</mask>
<clipPath id="clip23">
  <rect x="0" y="0" width="245" height="173"/>
</clipPath>
<g id="surface71" clip-path="url(#clip23)">
<path style=" stroke:none;fill-rule:nonzero;fill:rgb(0%,0%,0%);fill-opacity:1;" d="M 134.5625 98.980469 C 135.230469 99.785156 135.703125 100.738281 135.945312 101.757812 C 136.171875 102.734375 136.179688 103.753906 136.398438 104.734375 C 136.863281 106.816406 138.238281 108.570312 139.671875 110.148438 C 140.136719 110.71875 140.703125 111.199219 141.34375 111.5625 C 142 111.886719 142.835938 111.953125 143.445312 111.5625 C 142.867188 111.085938 142.554688 110.359375 142.347656 109.640625 C 142.058594 108.632812 141.929688 107.585938 141.964844 106.542969 C 142.027344 104.792969 142.539062 102.949219 141.8125 101.355469 C 141.394531 100.4375 140.617188 99.738281 139.824219 99.109375 C 139.273438 98.660156 138.679688 98.265625 138.046875 97.9375 C 136.875 97.347656 135.53125 97.09375 134.238281 96.964844 C 132.550781 96.789062 134.027344 98.335938 134.5625 98.980469 Z M 134.5625 98.980469 "/>
</g>
<mask id="mask23">
  <g filter="url(#alpha)">
<rect x="0" y="0" width="245" height="173" style="fill:rgb(0%,0%,0%);fill-opacity:0.101961;stroke:none;"/>
  </g>
</mask>
<clipPath id="clip24">
  <rect x="0" y="0" width="245" height="173"/>
</clipPath>
<g id="surface74" clip-path="url(#clip24)">
<path style=" stroke:none;fill-rule:nonzero;fill:rgb(14.509804%,13.333333%,13.72549%);fill-opacity:1;" d="M 128.390625 41.292969 L 126.679688 41.292969 C 127.121094 41.3125 127.535156 41.089844 127.761719 40.707031 C 127.988281 40.328125 127.988281 39.855469 127.761719 39.472656 C 127.535156 39.09375 127.121094 38.867188 126.679688 38.890625 L 112.816406 38.890625 C 112.175781 38.917969 111.671875 39.449219 111.671875 40.089844 C 111.671875 40.734375 112.175781 41.261719 112.816406 41.292969 L 114.527344 41.292969 C 114.085938 41.273438 113.671875 41.496094 113.445312 41.878906 C 113.21875 42.257812 113.21875 42.730469 113.445312 43.113281 C 113.671875 43.492188 114.085938 43.71875 114.527344 43.695312 L 112.132812 43.695312 C 111.691406 43.675781 111.277344 43.902344 111.050781 44.28125 C 110.824219 44.660156 110.824219 45.136719 111.050781 45.515625 C 111.277344 45.894531 111.691406 46.121094 112.132812 46.101562 L 125.996094 46.101562 C 126.4375 46.121094 126.851562 45.894531 127.078125 45.515625 C 127.304688 45.136719 127.304688 44.660156 127.078125 44.28125 C 126.851562 43.902344 126.4375 43.675781 125.996094 43.695312 L 128.390625 43.695312 C 128.832031 43.71875 129.246094 43.492188 129.472656 43.113281 C 129.699219 42.730469 129.699219 42.257812 129.472656 41.878906 C 129.246094 41.496094 128.832031 41.273438 128.390625 41.292969 Z M 128.390625 41.292969 "/>
</g>
<mask id="mask24">
  <g filter="url(#alpha)">
<rect x="0" y="0" width="245" height="173" style="fill:rgb(0%,0%,0%);fill-opacity:0.101961;stroke:none;"/>
  </g>
</mask>
<clipPath id="clip25">
  <rect x="0" y="0" width="245" height="173"/>
</clipPath>
<g id="surface77" clip-path="url(#clip25)">
<path style=" stroke:none;fill-rule:nonzero;fill:rgb(14.509804%,13.333333%,13.72549%);fill-opacity:1;" d="M 195.546875 41.292969 L 193.835938 41.292969 C 194.277344 41.3125 194.691406 41.089844 194.917969 40.707031 C 195.144531 40.328125 195.144531 39.855469 194.917969 39.472656 C 194.691406 39.09375 194.277344 38.867188 193.835938 38.890625 L 179.972656 38.890625 C 179.335938 38.917969 178.828125 39.449219 178.828125 40.089844 C 178.828125 40.734375 179.335938 41.261719 179.972656 41.292969 L 181.683594 41.292969 C 181.246094 41.273438 180.828125 41.496094 180.601562 41.878906 C 180.375 42.257812 180.375 42.730469 180.601562 43.113281 C 180.828125 43.492188 181.246094 43.71875 181.683594 43.695312 L 179.289062 43.695312 C 178.847656 43.675781 178.433594 43.902344 178.207031 44.28125 C 177.980469 44.660156 177.980469 45.136719 178.207031 45.515625 C 178.433594 45.894531 178.847656 46.121094 179.289062 46.101562 L 193.152344 46.101562 C 193.59375 46.121094 194.007812 45.894531 194.234375 45.515625 C 194.460938 45.136719 194.460938 44.660156 194.234375 44.28125 C 194.007812 43.902344 193.59375 43.675781 193.152344 43.695312 L 195.546875 43.695312 C 195.988281 43.71875 196.40625 43.492188 196.632812 43.113281 C 196.855469 42.730469 196.855469 42.257812 196.632812 41.878906 C 196.40625 41.496094 195.988281 41.273438 195.546875 41.292969 Z M 195.546875 41.292969 "/>
</g>
<mask id="mask25">
  <g filter="url(#alpha)">
<rect x="0" y="0" width="245" height="173" style="fill:rgb(0%,0%,0%);fill-opacity:0.101961;stroke:none;"/>
  </g>
</mask>
<clipPath id="clip26">
  <rect x="0" y="0" width="245" height="173"/>
</clipPath>
<g id="surface80" clip-path="url(#clip26)">
<path style=" stroke:none;fill-rule:nonzero;fill:rgb(14.509804%,13.333333%,13.72549%);fill-opacity:1;" d="M 52.527344 72 L 50.816406 72 C 51.257812 72.019531 51.671875 71.792969 51.898438 71.414062 C 52.125 71.035156 52.125 70.558594 51.898438 70.179688 C 51.671875 69.800781 51.257812 69.574219 50.816406 69.59375 L 36.953125 69.59375 C 36.3125 69.625 35.808594 70.152344 35.808594 70.796875 C 35.808594 71.441406 36.3125 71.96875 36.953125 72 L 38.664062 72 C 38.023438 72.027344 37.519531 72.558594 37.519531 73.199219 C 37.519531 73.84375 38.023438 74.375 38.664062 74.402344 L 36.269531 74.402344 C 35.828125 74.382812 35.414062 74.605469 35.1875 74.988281 C 34.960938 75.367188 34.960938 75.839844 35.1875 76.222656 C 35.414062 76.601562 35.828125 76.828125 36.269531 76.804688 L 50.132812 76.804688 C 50.574219 76.828125 50.988281 76.601562 51.214844 76.222656 C 51.441406 75.839844 51.441406 75.367188 51.214844 74.988281 C 50.988281 74.605469 50.574219 74.382812 50.132812 74.402344 L 52.527344 74.402344 C 53.167969 74.375 53.671875 73.84375 53.671875 73.199219 C 53.671875 72.558594 53.167969 72.027344 52.527344 72 Z M 52.527344 72 "/>
</g>
</defs>
<g id="surface1">
<use xlink:href="#surface5" mask="url(#mask0)"/>
<use xlink:href="#surface8" mask="url(#mask1)"/>
<path style=" stroke:none;fill-rule:nonzero;fill:rgb(42.352941%,38.823529%,100%);fill-opacity:1;" d="M 166.980469 75.921875 L 80.488281 75.921875 L 85.429688 60.65625 L 88.082031 60.65625 L 88.609375 64.613281 L 157.097656 64.613281 L 157.449219 60.65625 L 160.625 60.65625 Z M 166.980469 75.921875 "/>
<use xlink:href="#surface11" mask="url(#mask2)"/>
<path style=" stroke:none;fill-rule:nonzero;fill:rgb(42.352941%,38.823529%,100%);fill-opacity:1;" d="M 172.984375 79.3125 L 72.722656 79.3125 L 70.25 73.09375 L 175.101562 73.09375 Z M 172.984375 79.3125 "/>
<path style=" stroke:none;fill-rule:nonzero;fill:rgb(42.352941%,38.823529%,100%);fill-opacity:1;" d="M 169.804688 83.273438 L 75.195312 83.273438 L 72.722656 79.3125 L 172.984375 79.3125 Z M 169.804688 83.273438 "/>
<path style=" stroke:none;fill-rule:nonzero;fill:rgb(42.352941%,38.823529%,100%);fill-opacity:1;" d="M 75.195312 82.140625 L 169.804688 82.140625 L 169.804688 86.664062 L 75.195312 86.664062 Z M 75.195312 82.140625 "/>
<path style=" stroke:none;fill-rule:nonzero;fill:rgb(42.352941%,38.823529%,100%);fill-opacity:1;" d="M 69.546875 94.015625 L 177.21875 94.015625 L 177.21875 110.976562 L 69.546875 110.976562 Z M 69.546875 94.015625 "/>
<use xlink:href="#surface14" mask="url(#mask3)"/>
<path style=" stroke:none;fill-rule:nonzero;fill:rgb(42.352941%,38.823529%,100%);fill-opacity:1;" d="M 245 151.117188 L 0 149.425781 L 7.0625 109.28125 L 239.703125 109.28125 Z M 245 151.117188 "/>
<use xlink:href="#surface17" mask="url(#mask4)"/>
<use xlink:href="#surface20" mask="url(#mask5)"/>
<path style=" stroke:none;fill-rule:nonzero;fill:rgb(42.352941%,38.823529%,100%);fill-opacity:1;" d="M 69.546875 94.015625 L 71.3125 94.015625 L 71.3125 110.976562 L 69.546875 110.976562 Z M 69.546875 94.015625 "/>
<path style=" stroke:none;fill-rule:nonzero;fill:rgb(42.352941%,38.823529%,100%);fill-opacity:1;" d="M 79.78125 94.015625 L 81.550781 94.015625 L 81.550781 110.976562 L 79.78125 110.976562 Z M 79.78125 94.015625 "/>
<path style=" stroke:none;fill-rule:nonzero;fill:rgb(42.352941%,38.823529%,100%);fill-opacity:1;" d="M 91.082031 94.015625 L 92.847656 94.015625 L 92.847656 110.976562 L 91.082031 110.976562 Z M 91.082031 94.015625 "/>
<path style=" stroke:none;fill-rule:nonzero;fill:rgb(42.352941%,38.823529%,100%);fill-opacity:1;" d="M 102.023438 94.015625 L 103.789062 94.015625 L 103.789062 110.976562 L 102.023438 110.976562 Z M 102.023438 94.015625 "/>
<path style=" stroke:none;fill-rule:nonzero;fill:rgb(42.352941%,38.823529%,100%);fill-opacity:1;" d="M 114.027344 94.015625 L 115.792969 94.015625 L 115.792969 110.976562 L 114.027344 110.976562 Z M 114.027344 94.015625 "/>
<path style=" stroke:none;fill-rule:nonzero;fill:rgb(42.352941%,38.823529%,100%);fill-opacity:1;" d="M 130.265625 94.015625 L 132.03125 94.015625 L 132.03125 110.976562 L 130.265625 110.976562 Z M 130.265625 94.015625 "/>
<path style=" stroke:none;fill-rule:nonzero;fill:rgb(42.352941%,38.823529%,100%);fill-opacity:1;" d="M 141.210938 94.015625 L 142.976562 94.015625 L 142.976562 110.976562 L 141.210938 110.976562 Z M 141.210938 94.015625 "/>
<path style=" stroke:none;fill-rule:nonzero;fill:rgb(42.352941%,38.823529%,100%);fill-opacity:1;" d="M 153.566406 94.015625 L 155.332031 94.015625 L 155.332031 110.976562 L 153.566406 110.976562 Z M 153.566406 94.015625 "/>
<path style=" stroke:none;fill-rule:nonzero;fill:rgb(42.352941%,38.823529%,100%);fill-opacity:1;" d="M 164.15625 94.015625 L 165.921875 94.015625 L 165.921875 110.976562 L 164.15625 110.976562 Z M 164.15625 94.015625 "/>
<path style=" stroke:none;fill-rule:nonzero;fill:rgb(42.352941%,38.823529%,100%);fill-opacity:1;" d="M 175.453125 94.015625 L 177.222656 94.015625 L 177.222656 110.976562 L 175.453125 110.976562 Z M 175.453125 94.015625 "/>
<path style=" stroke:none;fill-rule:nonzero;fill:rgb(42.352941%,38.823529%,100%);fill-opacity:1;" d="M 177.21875 95.144531 L 69.546875 95.144531 L 63.191406 89.492188 L 183.21875 89.492188 Z M 177.21875 95.144531 "/>
<path style=" stroke:none;fill-rule:nonzero;fill:rgb(42.352941%,38.823529%,100%);fill-opacity:1;" d="M 69.546875 95.144531 L 73.78125 95.144531 L 73.78125 97.40625 L 69.546875 97.40625 Z M 69.546875 95.144531 "/>
<path style=" stroke:none;fill-rule:nonzero;fill:rgb(42.352941%,38.823529%,100%);fill-opacity:1;" d="M 78.726562 95.144531 L 82.960938 95.144531 L 82.960938 97.40625 L 78.726562 97.40625 Z M 78.726562 95.144531 "/>
<path style=" stroke:none;fill-rule:nonzero;fill:rgb(42.352941%,38.823529%,100%);fill-opacity:1;" d="M 89.667969 95.144531 L 93.902344 95.144531 L 93.902344 97.40625 L 89.667969 97.40625 Z M 89.667969 95.144531 "/>
<path style=" stroke:none;fill-rule:nonzero;fill:rgb(42.352941%,38.823529%,100%);fill-opacity:1;" d="M 100.964844 95.144531 L 105.199219 95.144531 L 105.199219 97.40625 L 100.964844 97.40625 Z M 100.964844 95.144531 "/>
<path style=" stroke:none;fill-rule:nonzero;fill:rgb(42.352941%,38.823529%,100%);fill-opacity:1;" d="M 112.96875 95.144531 L 117.203125 95.144531 L 117.203125 97.40625 L 112.96875 97.40625 Z M 112.96875 95.144531 "/>
<path style=" stroke:none;fill-rule:nonzero;fill:rgb(42.352941%,38.823529%,100%);fill-opacity:1;" d="M 128.855469 95.144531 L 133.089844 95.144531 L 133.089844 97.40625 L 128.855469 97.40625 Z M 128.855469 95.144531 "/>
<path style=" stroke:none;fill-rule:nonzero;fill:rgb(42.352941%,38.823529%,100%);fill-opacity:1;" d="M 140.152344 95.144531 L 144.386719 95.144531 L 144.386719 97.40625 L 140.152344 97.40625 Z M 140.152344 95.144531 "/>
<path style=" stroke:none;fill-rule:nonzero;fill:rgb(42.352941%,38.823529%,100%);fill-opacity:1;" d="M 152.507812 95.144531 L 156.742188 95.144531 L 156.742188 97.40625 L 152.507812 97.40625 Z M 152.507812 95.144531 "/>
<path style=" stroke:none;fill-rule:nonzero;fill:rgb(42.352941%,38.823529%,100%);fill-opacity:1;" d="M 163.097656 95.144531 L 167.332031 95.144531 L 167.332031 97.40625 L 163.097656 97.40625 Z M 163.097656 95.144531 "/>
<path style=" stroke:none;fill-rule:nonzero;fill:rgb(42.352941%,38.823529%,100%);fill-opacity:1;" d="M 172.984375 95.144531 L 177.21875 95.144531 L 177.21875 97.40625 L 172.984375 97.40625 Z M 172.984375 95.144531 "/>
<path style=" stroke:none;fill-rule:nonzero;fill:rgb(42.352941%,38.823529%,100%);fill-opacity:1;" d="M 183.925781 89.492188 L 62.839844 89.492188 L 61.425781 85.535156 L 184.984375 85.535156 Z M 183.925781 89.492188 "/>
<use xlink:href="#surface23" mask="url(#mask6)"/>
<path style=" stroke:none;fill-rule:nonzero;fill:rgb(42.352941%,38.823529%,100%);fill-opacity:1;" d="M 125.324219 83.835938 C 125.324219 81.339844 124.058594 79.3125 122.5 79.3125 C 120.941406 79.3125 119.675781 81.339844 119.675781 83.835938 C 119.675781 86.335938 120.941406 88.359375 122.5 88.359375 C 124.058594 88.359375 125.324219 86.335938 125.324219 83.835938 Z M 125.324219 83.835938 "/>
<use xlink:href="#surface26" mask="url(#mask7)"/>
<path style=" stroke:none;fill-rule:nonzero;fill:rgb(42.352941%,38.823529%,100%);fill-opacity:1;" d="M 124.265625 83.835938 C 124.265625 82.277344 123.476562 81.011719 122.5 81.011719 C 121.523438 81.011719 120.734375 82.277344 120.734375 83.835938 C 120.734375 85.398438 121.523438 86.664062 122.5 86.664062 C 123.476562 86.664062 124.265625 85.398438 124.265625 83.835938 Z M 124.265625 83.835938 "/>
<path style=" stroke:none;fill-rule:nonzero;fill:url(#linear0);" d="M 163.832031 149.066406 L 151.722656 139.742188 C 151.722656 139.742188 150.746094 135.855469 150.355469 133.132812 C 149.964844 130.410156 149.378906 118.753906 149.378906 118.753906 C 149.65625 117.742188 149.839844 116.710938 149.925781 115.667969 C 150.046875 115.644531 150.175781 115.613281 150.289062 115.582031 C 152.121094 115.109375 153.632812 113.804688 154.363281 112.054688 C 155.609375 108.949219 154 105.277344 151.96875 102.816406 C 149.933594 100.355469 147.375 98.378906 146.035156 95.328125 C 144.382812 91.566406 144.949219 87.023438 144.105469 82.910156 C 144.023438 82.332031 143.808594 81.785156 143.480469 81.304688 C 142.957031 80.652344 142.140625 80.511719 141.410156 80.25 C 139.101562 79.429688 137.367188 77.179688 136.019531 74.828125 C 133.832031 71.023438 131.570312 65.234375 127.0625 64.902344 C 125.390625 64.78125 123.640625 65.347656 121.949219 65.34375 C 119.328125 65.34375 116.726562 65.375 114.125 65.738281 C 113.195312 65.863281 112.230469 66.039062 111.453125 66.65625 C 108.789062 68.769531 109.996094 74.359375 107.429688 76.640625 C 106.664062 77.316406 105.6875 77.558594 104.824219 78.023438 C 101.570312 79.773438 100.125 84.433594 100.316406 88.625 C 100.40625 90.589844 100.816406 92.636719 101.972656 94.074219 C 102.886719 95.222656 104.195312 95.882812 105.046875 97.09375 C 106.425781 99.046875 106.238281 101.636719 106.089844 104.273438 C 104.25 105.046875 102.769531 105.9375 102.304688 106.894531 C 100.742188 110.097656 100.9375 121.078125 100.9375 121.078125 C 100.9375 121.078125 101.523438 139.050781 97.03125 141.296875 L 80.234375 152.957031 C 80.234375 152.957031 68.320312 142.5625 65.390625 148.683594 C 63.386719 152.867188 70.703125 155.238281 75.523438 156.316406 C 72.484375 158.484375 70.796875 162.488281 72.226562 165.203125 C 74.464844 169.476562 80.722656 172.390625 80.722656 172.390625 C 80.722656 172.390625 104.589844 173.546875 115.621094 171.066406 L 115.800781 171.066406 C 120.484375 171.917969 127.207031 172.8125 132.597656 172.273438 C 132.699219 172.523438 132.769531 172.683594 132.769531 172.683594 C 132.769531 172.683594 167.34375 175.597656 173.589844 163.742188 C 176.796875 157.664062 173.449219 154.855469 169.429688 153.5625 C 173.929688 153.203125 179.054688 151.941406 179.644531 148.101562 C 180.726562 141.101562 163.832031 149.066406 163.832031 149.066406 Z M 160.347656 152.785156 C 154.023438 155.097656 148.886719 155.226562 146.15625 155.054688 C 144.808594 152.113281 139.210938 139.378906 139.0625 130.855469 C 139.097656 128.953125 139.4375 127.292969 140.191406 126.042969 C 141.820312 123.355469 142.300781 121.246094 142.246094 119.644531 C 142.246094 119.523438 142.246094 119.410156 142.246094 119.296875 C 142.253906 118.804688 142.207031 118.316406 142.105469 117.835938 C 142.375 118.496094 142.453125 119.21875 142.335938 119.917969 C 141.75 122.933594 143.3125 142.460938 143.3125 142.460938 C 143.3125 142.460938 144.582031 146.832031 147.21875 148.09375 Z M 98.402344 151.402344 L 104.457031 147.515625 C 104.457031 147.515625 107.289062 146.160156 107.574219 142.847656 L 109.566406 127.0625 C 109.703125 127.742188 109.882812 128.40625 110.101562 129.0625 C 110.457031 130.097656 110.601562 131.613281 110.628906 133.421875 C 110.5625 142.222656 107.574219 156.839844 107.574219 156.839844 L 107.613281 156.839844 L 107.589844 156.945312 L 107.378906 156.957031 C 102.46875 156.808594 91.019531 156.378906 84.609375 155.488281 Z M 87.792969 160.605469 L 87.792969 160.640625 L 86.300781 160.640625 Z M 87.792969 160.605469 "/>
<path style=" stroke:none;fill-rule:nonzero;fill:rgb(58.823529%,36.470588%,48.235294%);fill-opacity:1;" d="M 135.5625 76.417969 C 136.871094 78.707031 138.546875 80.910156 140.773438 81.703125 C 141.480469 81.953125 142.265625 82.097656 142.765625 82.730469 C 143.082031 83.199219 143.289062 83.734375 143.367188 84.296875 C 144.179688 88.308594 143.632812 92.738281 145.230469 96.402344 C 146.523438 99.371094 149 101.304688 150.96875 103.699219 C 152.933594 106.09375 154.480469 109.675781 153.285156 112.699219 C 152.585938 114.398438 151.136719 115.671875 149.363281 116.140625 C 147.714844 116.585938 145.996094 116.390625 144.324219 116.101562 C 142.121094 115.710938 139.878906 115.105469 138.042969 113.605469 C 134.867188 111.015625 133.523438 106.367188 131.863281 102.230469 C 131.082031 100.296875 130.042969 98.265625 128.328125 97.570312 C 126.359375 96.777344 124.152344 98.101562 122.875 100.046875 C 121.597656 101.992188 121.03125 104.4375 120.414062 106.789062 C 119.71875 109.441406 118.835938 112.199219 117.003906 113.933594 C 115.382812 115.523438 112.984375 116.003906 110.875 115.167969 C 108.835938 114.3125 107.222656 112.15625 106.753906 109.652344 C 106.03125 105.792969 107.765625 101.164062 105.636719 98.113281 C 104.8125 96.933594 103.550781 96.289062 102.652344 95.171875 C 101.546875 93.769531 101.140625 91.773438 101.054688 89.859375 C 100.867188 85.769531 102.265625 81.214844 105.410156 79.523438 C 106.25 79.070312 107.1875 78.832031 107.925781 78.175781 C 110.414062 75.957031 109.242188 70.507812 111.816406 68.4375 C 112.5625 67.835938 113.5 67.667969 114.398438 67.542969 C 116.921875 67.191406 119.425781 67.152344 121.960938 67.15625 C 123.597656 67.15625 125.289062 66.609375 126.90625 66.730469 C 131.261719 67.0625 133.445312 72.703125 135.5625 76.417969 Z M 135.5625 76.417969 "/>
<path style=" stroke:none;fill-rule:nonzero;fill:rgb(34.117647%,34.901961%,53.333333%);fill-opacity:1;" d="M 88.867188 159.058594 L 89.820312 170.386719 L 156.453125 169.988281 L 155.183594 157.625 L 132.65625 154.992188 L 93.152344 157.386719 Z M 88.867188 159.058594 "/>
<use xlink:href="#surface29" mask="url(#mask8)"/>
<path style=" stroke:none;fill-rule:nonzero;fill:rgb(96.862745%,76.862745%,65.490196%);fill-opacity:1;" d="M 132.714844 166.980469 L 110.53125 169.0625 C 110.53125 169.0625 125.730469 172.949219 134.601562 171.058594 Z M 132.714844 166.980469 "/>
<use xlink:href="#surface32" mask="url(#mask9)"/>
<path style=" stroke:none;fill-rule:nonzero;fill:rgb(96.862745%,76.862745%,65.490196%);fill-opacity:1;" d="M 115.816406 87.210938 C 115.816406 87.210938 120.160156 98.675781 113.738281 103.789062 C 107.320312 108.90625 112.609375 123.210938 112.609375 123.210938 L 137.339844 122.074219 C 137.339844 122.074219 139.792969 105.972656 138.472656 102.558594 C 138.472656 102.558594 132.617188 104.265625 131.296875 100.664062 C 129.976562 97.066406 129.03125 87.210938 129.03125 87.210938 Z M 115.816406 87.210938 "/>
<path style=" stroke:none;fill-rule:nonzero;fill:rgb(34.117647%,34.901961%,53.333333%);fill-opacity:1;" d="M 110.152344 156.554688 C 110.152344 156.554688 89.292969 156.082031 83.160156 154.558594 C 77.023438 153.035156 71.738281 160.339844 73.90625 164.507812 C 76.078125 168.675781 82.117188 171.515625 82.117188 171.515625 C 82.117188 171.515625 113.171875 173.03125 119.875 168.769531 C 119.875 168.769531 122.421875 161.476562 119.875 160.054688 L 87.5 160.054688 L 111.378906 159.582031 Z M 110.152344 156.554688 "/>
<path style=" stroke:none;fill-rule:nonzero;fill:rgb(34.117647%,34.901961%,53.333333%);fill-opacity:1;" d="M 143.285156 154.378906 C 143.285156 154.378906 150.269531 155.894531 159.898438 152.105469 C 159.898438 152.105469 177.925781 151.535156 171.886719 163.089844 C 165.847656 174.644531 132.433594 171.804688 132.433594 171.804688 C 132.433594 171.804688 130.441406 167.539062 132.433594 166.40625 C 134.421875 165.269531 151.6875 157.972656 157.054688 158.351562 L 142.132812 161.285156 Z M 143.285156 154.378906 "/>
<use xlink:href="#surface35" mask="url(#mask10)"/>
<path style=" stroke:none;fill-rule:nonzero;fill:rgb(96.862745%,76.862745%,65.490196%);fill-opacity:1;" d="M 133.417969 84.035156 C 133.417969 89.789062 128.769531 94.457031 123.039062 94.457031 C 117.304688 94.457031 112.65625 89.789062 112.65625 84.035156 C 112.65625 78.28125 117.304688 73.617188 123.039062 73.617188 C 128.769531 73.617188 133.417969 78.28125 133.417969 84.035156 Z M 133.417969 84.035156 "/>
<path style=" stroke:none;fill-rule:nonzero;fill:rgb(96.862745%,76.862745%,65.490196%);fill-opacity:1;" d="M 116.949219 102.179688 C 116.949219 102.179688 104.492188 104.550781 102.980469 107.671875 C 101.472656 110.792969 101.660156 121.503906 101.660156 121.503906 C 101.660156 121.503906 102.226562 139.03125 97.886719 141.207031 L 81.652344 152.578125 C 81.652344 152.578125 70.132812 142.4375 67.304688 148.40625 C 64.472656 154.375 80.898438 156.554688 80.898438 156.554688 L 99.207031 151.0625 L 105.0625 147.273438 C 105.0625 147.273438 107.796875 145.949219 108.082031 142.726562 L 110.535156 123.210938 L 120.351562 120.367188 L 136.203125 120.367188 L 138.328125 114.28125 C 138.328125 114.28125 142.246094 117.433594 141.679688 120.367188 C 141.113281 123.304688 142.621094 142.335938 142.621094 142.335938 C 142.621094 142.335938 143.847656 146.601562 146.398438 147.828125 L 161.125 153.152344 C 161.125 153.152344 176.699219 154.667969 177.738281 147.847656 C 178.773438 141.027344 162.445312 148.792969 162.445312 148.792969 L 150.742188 139.699219 C 150.742188 139.699219 149.796875 135.910156 149.421875 133.253906 C 149.042969 130.601562 148.476562 119.234375 148.476562 119.234375 C 148.476562 119.234375 152.0625 107.296875 141.683594 105.214844 L 128.277344 101.046875 Z M 116.949219 102.179688 "/>
<use xlink:href="#surface38" mask="url(#mask11)"/>
<use xlink:href="#surface41" mask="url(#mask12)"/>
<use xlink:href="#surface44" mask="url(#mask13)"/>
<use xlink:href="#surface47" mask="url(#mask14)"/>
<path style=" stroke:none;fill-rule:nonzero;fill:rgb(98.823529%,40%,50.588235%);fill-opacity:1;" d="M 108.5 104.5 L 110.53125 116.957031 C 110.53125 116.957031 108.542969 122.925781 110.53125 128.800781 C 112.519531 134.671875 108.074219 156.554688 108.074219 156.554688 C 108.074219 156.554688 131.386719 164.046875 145.632812 155.421875 C 145.632812 155.421875 135.15625 133.253906 139.589844 125.863281 C 144.023438 118.472656 139.664062 115.582031 139.664062 115.582031 L 140.34375 101.988281 L 137.136719 101.042969 L 135.246094 114.496094 C 135.246094 114.496094 122.222656 123.589844 112.59375 115.632812 L 110.515625 101.042969 Z M 108.5 104.5 "/>
<path style=" stroke:none;fill-rule:nonzero;fill:rgb(96.862745%,76.862745%,65.490196%);fill-opacity:1;" d="M 118.082031 161.199219 L 122.996094 160.535156 C 122.996094 160.535156 128.660156 153.242188 132.71875 158.832031 C 132.71875 158.832031 134.417969 162.429688 136.496094 163.09375 C 137.917969 163.523438 139.367188 163.839844 140.839844 164.039062 L 132.4375 166.410156 C 132.4375 166.410156 128.757812 168.589844 124.886719 168.019531 C 122.609375 167.671875 120.28125 167.867188 118.09375 168.589844 Z M 118.082031 161.199219 "/>
<use xlink:href="#surface50" mask="url(#mask15)"/>
<use xlink:href="#surface53" mask="url(#mask16)"/>
<use xlink:href="#surface56" mask="url(#mask17)"/>
<use xlink:href="#surface59" mask="url(#mask18)"/>
<use xlink:href="#surface62" mask="url(#mask19)"/>
<path style=" stroke:none;fill-rule:nonzero;fill:rgb(34.117647%,34.901961%,53.333333%);fill-opacity:1;" d="M 118.601562 160.488281 C 118.601562 160.488281 120.394531 168.976562 118.601562 169.273438 C 116.808594 169.574219 114.257812 167.878906 114.257812 167.6875 C 114.257812 167.496094 115.390625 162.097656 115.390625 162.097656 Z M 118.601562 160.488281 "/>
<use xlink:href="#surface65" mask="url(#mask20)"/>
<path style=" stroke:none;fill-rule:nonzero;fill:rgb(58.823529%,36.470588%,48.235294%);fill-opacity:1;" d="M 109.839844 100.792969 C 109.046875 102.640625 108.765625 104.816406 109.609375 106.636719 C 110.25 108.027344 111.503906 109.15625 111.746094 110.667969 C 112.046875 112.566406 110.648438 114.496094 111.171875 116.34375 C 111.371094 117.050781 111.835938 117.648438 112.308594 118.210938 C 113.746094 119.917969 115.65625 121.566406 117.875 121.433594 C 118.222656 117.996094 115.261719 114.65625 116.230469 111.339844 C 116.582031 110.152344 117.394531 109.164062 117.886719 108.027344 C 118.707031 106.148438 118.589844 104.003906 118.292969 101.972656 C 117.863281 99.03125 116.773438 95.417969 113.867188 94.039062 C 112.527344 93.40625 110.632812 93.359375 110.15625 95.082031 C 109.90625 96 110.503906 96.863281 110.585938 97.761719 C 110.691406 98.90625 110.28125 99.769531 109.839844 100.792969 Z M 109.839844 100.792969 "/>
<use xlink:href="#surface68" mask="url(#mask21)"/>
<path style=" stroke:none;fill-rule:nonzero;fill:rgb(58.823529%,36.470588%,48.235294%);fill-opacity:1;" d="M 110.578125 78.730469 C 110.578125 78.730469 124.359375 76.835938 124.734375 79.675781 C 125.113281 82.519531 137.289062 87.167969 137.289062 87.167969 L 134.269531 79.675781 L 128.699219 70.394531 C 128.699219 70.394531 118.503906 69.648438 118.035156 70.394531 C 117.566406 71.144531 112.183594 73.617188 112.183594 73.617188 Z M 110.578125 78.730469 "/>
<use xlink:href="#surface71" mask="url(#mask22)"/>
<path style=" stroke:none;fill-rule:nonzero;fill:rgb(58.823529%,36.470588%,48.235294%);fill-opacity:1;" d="M 134.5625 98.691406 C 135.230469 99.5 135.707031 100.453125 135.945312 101.476562 C 136.171875 102.453125 136.179688 103.472656 136.398438 104.453125 C 136.863281 106.535156 138.238281 108.289062 139.671875 109.867188 C 140.136719 110.4375 140.703125 110.917969 141.34375 111.277344 C 142 111.605469 142.835938 111.671875 143.445312 111.277344 C 142.867188 110.804688 142.554688 110.078125 142.347656 109.355469 C 142.058594 108.351562 141.929688 107.304688 141.964844 106.257812 C 142.027344 104.511719 142.539062 102.667969 141.8125 101.074219 C 141.394531 100.15625 140.617188 99.457031 139.824219 98.828125 C 139.273438 98.378906 138.679688 97.984375 138.046875 97.652344 C 136.875 97.066406 135.53125 96.808594 134.238281 96.683594 C 132.550781 96.503906 134.027344 98.050781 134.5625 98.691406 Z M 134.5625 98.691406 "/>
<use xlink:href="#surface74" mask="url(#mask23)"/>
<use xlink:href="#surface77" mask="url(#mask24)"/>
<use xlink:href="#surface80" mask="url(#mask25)"/>
<path style="fill:none;stroke-width:2;stroke-linecap:butt;stroke-linejoin:miter;stroke:rgb(32.54902%,32.941176%,38.039216%);stroke-opacity:1;stroke-miterlimit:10;" d="M 896.222417 778.624817 C 896.222417 778.624817 871.566008 694.863324 900.855309 633.227508 C 913.167809 607.346412 917.235332 578.304504 911.565928 550.217099 C 908.849011 536.885361 904.907127 523.83528 899.803093 511.223331 " transform="matrix(0.248731,0,0,0.249639,-26.738579,-25.840159)"/>
<path style=" stroke:none;fill-rule:nonzero;fill:rgb(42.352941%,38.823529%,100%);fill-opacity:1;" d="M 201.597656 92.066406 C 201.597656 94.628906 196.972656 102.050781 196.972656 102.050781 C 196.972656 102.050781 192.347656 94.621094 192.347656 92.066406 C 192.308594 90.382812 193.183594 88.8125 194.628906 87.957031 C 196.074219 87.105469 197.867188 87.105469 199.3125 87.957031 C 200.761719 88.8125 201.632812 90.382812 201.59375 92.066406 Z M 201.597656 92.066406 "/>
<path style=" stroke:none;fill-rule:nonzero;fill:rgb(42.352941%,38.823529%,100%);fill-opacity:1;" d="M 209.246094 106.261719 C 207.859375 108.414062 199.953125 112.128906 199.953125 112.128906 C 199.953125 112.128906 200.097656 103.367188 201.488281 101.214844 C 202.902344 99.136719 205.710938 98.570312 207.816406 99.941406 C 209.921875 101.308594 210.558594 104.113281 209.246094 106.257812 Z M 209.246094 106.261719 "/>
<path style=" stroke:none;fill-rule:nonzero;fill:rgb(42.352941%,38.823529%,100%);fill-opacity:1;" d="M 208.910156 130.519531 C 206.628906 131.671875 197.941406 130.875 197.941406 130.875 C 197.941406 130.875 202.46875 123.386719 204.75 122.234375 C 206.230469 121.445312 208.015625 121.523438 209.421875 122.4375 C 210.828125 123.347656 211.632812 124.949219 211.527344 126.628906 C 211.421875 128.304688 210.421875 129.792969 208.914062 130.519531 Z M 208.910156 130.519531 "/>
<path style=" stroke:none;fill-rule:nonzero;fill:rgb(42.352941%,38.823529%,100%);fill-opacity:1;" d="M 204.542969 148.816406 C 202.488281 150.335938 193.785156 151.027344 193.785156 151.027344 C 193.785156 151.027344 196.988281 142.878906 199.042969 141.351562 C 200.371094 140.351562 202.128906 140.140625 203.65625 140.800781 C 205.179688 141.460938 206.234375 142.894531 206.417969 144.550781 C 206.601562 146.207031 205.882812 147.835938 204.542969 148.816406 Z M 204.542969 148.816406 "/>
<path style=" stroke:none;fill-rule:nonzero;fill:rgb(42.352941%,38.823529%,100%);fill-opacity:1;" d="M 190.246094 112.625 C 192.078125 114.410156 200.613281 116.257812 200.613281 116.257812 C 200.613281 116.257812 198.523438 107.753906 196.691406 105.96875 C 194.847656 104.253906 191.984375 104.332031 190.234375 106.136719 C 188.484375 107.945312 188.492188 110.824219 190.25 112.621094 Z M 190.246094 112.625 "/>
<path style=" stroke:none;fill-rule:nonzero;fill:rgb(42.352941%,38.823529%,100%);fill-opacity:1;" d="M 185.40625 134.085938 C 187.6875 135.238281 196.378906 134.441406 196.378906 134.441406 C 196.378906 134.441406 191.847656 126.953125 189.566406 125.800781 C 188.089844 125.015625 186.300781 125.09375 184.894531 126.003906 C 183.488281 126.914062 182.683594 128.519531 182.789062 130.195312 C 182.894531 131.871094 183.894531 133.359375 185.402344 134.085938 Z M 185.40625 134.085938 "/>
<path style=" stroke:none;fill-rule:nonzero;fill:rgb(42.352941%,38.823529%,100%);fill-opacity:1;" d="M 183.554688 155.59375 C 185.605469 157.117188 194.308594 157.808594 194.308594 157.808594 C 194.308594 157.808594 191.105469 149.65625 189.050781 148.132812 C 187.722656 147.132812 185.960938 146.921875 184.4375 147.582031 C 182.914062 148.242188 181.859375 149.671875 181.675781 151.328125 C 181.492188 152.988281 182.207031 154.613281 183.550781 155.59375 Z M 183.554688 155.59375 "/>
<path style=" stroke:none;fill-rule:nonzero;fill:rgb(98.823529%,40%,50.588235%);fill-opacity:1;" d="M 201.597656 92.066406 C 201.597656 94.628906 196.972656 102.050781 196.972656 102.050781 C 196.972656 102.050781 192.347656 94.621094 192.347656 92.066406 C 192.308594 90.382812 193.183594 88.8125 194.628906 87.957031 C 196.074219 87.105469 197.867188 87.105469 199.3125 87.957031 C 200.761719 88.8125 201.632812 90.382812 201.59375 92.066406 Z M 201.597656 92.066406 "/>
<path style=" stroke:none;fill-rule:nonzero;fill:rgb(98.823529%,40%,50.588235%);fill-opacity:1;" d="M 209.246094 106.261719 C 207.859375 108.414062 199.953125 112.128906 199.953125 112.128906 C 199.953125 112.128906 200.097656 103.367188 201.488281 101.214844 C 202.902344 99.136719 205.710938 98.570312 207.816406 99.941406 C 209.921875 101.308594 210.558594 104.113281 209.246094 106.257812 Z M 209.246094 106.261719 "/>
<path style=" stroke:none;fill-rule:nonzero;fill:rgb(98.823529%,40%,50.588235%);fill-opacity:1;" d="M 208.910156 130.519531 C 206.628906 131.671875 197.941406 130.875 197.941406 130.875 C 197.941406 130.875 202.46875 123.386719 204.75 122.234375 C 206.230469 121.445312 208.015625 121.523438 209.421875 122.4375 C 210.828125 123.347656 211.632812 124.949219 211.527344 126.628906 C 211.421875 128.304688 210.421875 129.792969 208.914062 130.519531 Z M 208.910156 130.519531 "/>
<path style=" stroke:none;fill-rule:nonzero;fill:rgb(98.823529%,40%,50.588235%);fill-opacity:1;" d="M 204.542969 148.816406 C 202.488281 150.335938 193.785156 151.027344 193.785156 151.027344 C 193.785156 151.027344 196.988281 142.878906 199.042969 141.351562 C 200.371094 140.351562 202.128906 140.140625 203.65625 140.800781 C 205.179688 141.460938 206.234375 142.894531 206.417969 144.550781 C 206.601562 146.207031 205.882812 147.835938 204.542969 148.816406 Z M 204.542969 148.816406 "/>
<path style=" stroke:none;fill-rule:nonzero;fill:rgb(98.823529%,40%,50.588235%);fill-opacity:1;" d="M 190.246094 112.625 C 192.078125 114.410156 200.613281 116.257812 200.613281 116.257812 C 200.613281 116.257812 198.523438 107.753906 196.691406 105.96875 C 194.847656 104.253906 191.984375 104.332031 190.234375 106.136719 C 188.484375 107.945312 188.492188 110.824219 190.25 112.621094 Z M 190.246094 112.625 "/>
<path style=" stroke:none;fill-rule:nonzero;fill:rgb(98.823529%,40%,50.588235%);fill-opacity:1;" d="M 185.40625 134.085938 C 187.6875 135.238281 196.378906 134.441406 196.378906 134.441406 C 196.378906 134.441406 191.847656 126.953125 189.566406 125.800781 C 188.089844 125.015625 186.300781 125.09375 184.894531 126.003906 C 183.488281 126.914062 182.683594 128.519531 182.789062 130.195312 C 182.894531 131.871094 183.894531 133.359375 185.402344 134.085938 Z M 185.40625 134.085938 "/>
<path style=" stroke:none;fill-rule:nonzero;fill:rgb(98.823529%,40%,50.588235%);fill-opacity:1;" d="M 183.554688 155.59375 C 185.605469 157.117188 194.308594 157.808594 194.308594 157.808594 C 194.308594 157.808594 191.105469 149.65625 189.050781 148.132812 C 187.722656 147.132812 185.960938 146.921875 184.4375 147.582031 C 182.914062 148.242188 181.859375 149.671875 181.675781 151.328125 C 181.492188 152.988281 182.207031 154.613281 183.550781 155.59375 Z M 183.554688 155.59375 "/>
<path style="fill:none;stroke-width:2;stroke-linecap:butt;stroke-linejoin:miter;stroke:rgb(32.54902%,32.941176%,38.039216%);stroke-opacity:1;stroke-miterlimit:10;" d="M 314.236926 776.637574 C 314.236926 776.637574 289.564812 692.876081 318.854114 631.224618 C 331.166614 605.343521 335.234136 576.301614 329.564732 548.214209 C 326.847816 534.882471 322.905931 521.83239 317.817602 509.220441 " transform="matrix(0.248731,0,0,0.249639,-26.738579,-25.840159)"/>
<path style=" stroke:none;fill-rule:nonzero;fill:rgb(42.352941%,38.823529%,100%);fill-opacity:1;" d="M 56.835938 91.566406 C 56.835938 94.132812 52.210938 101.554688 52.210938 101.554688 C 52.210938 101.554688 47.585938 94.121094 47.585938 91.566406 C 47.546875 89.882812 48.421875 88.3125 49.867188 87.460938 C 51.3125 86.605469 53.105469 86.605469 54.550781 87.460938 C 56 88.3125 56.871094 89.882812 56.832031 91.566406 Z M 56.835938 91.566406 "/>
<path style=" stroke:none;fill-rule:nonzero;fill:rgb(42.352941%,38.823529%,100%);fill-opacity:1;" d="M 64.484375 105.761719 C 63.097656 107.914062 55.195312 111.628906 55.195312 111.628906 C 55.195312 111.628906 55.335938 102.867188 56.726562 100.71875 C 58.140625 98.636719 60.949219 98.074219 63.054688 99.441406 C 65.160156 100.808594 65.796875 103.613281 64.484375 105.757812 Z M 64.484375 105.761719 "/>
<path style=" stroke:none;fill-rule:nonzero;fill:rgb(42.352941%,38.823529%,100%);fill-opacity:1;" d="M 64.148438 130.019531 C 61.871094 131.171875 53.179688 130.375 53.179688 130.375 C 53.179688 130.375 57.707031 122.886719 59.988281 121.734375 C 62.257812 120.640625 64.984375 121.574219 66.117188 123.828125 C 67.25 126.085938 66.378906 128.835938 64.152344 130.019531 Z M 64.148438 130.019531 "/>
<path style=" stroke:none;fill-rule:nonzero;fill:rgb(42.352941%,38.823529%,100%);fill-opacity:1;" d="M 59.78125 148.316406 C 57.726562 149.839844 49.023438 150.527344 49.023438 150.527344 C 49.023438 150.527344 52.230469 142.378906 54.28125 140.855469 C 55.609375 139.851562 57.367188 139.640625 58.894531 140.300781 C 60.417969 140.964844 61.472656 142.394531 61.65625 144.050781 C 61.839844 145.707031 61.121094 147.335938 59.78125 148.316406 Z M 59.78125 148.316406 "/>
<path style=" stroke:none;fill-rule:nonzero;fill:rgb(42.352941%,38.823529%,100%);fill-opacity:1;" d="M 45.484375 112.125 C 47.316406 113.910156 55.851562 115.761719 55.851562 115.761719 C 55.851562 115.761719 53.761719 107.253906 51.929688 105.46875 C 50.089844 103.753906 47.222656 103.832031 45.472656 105.640625 C 43.722656 107.445312 43.730469 110.324219 45.488281 112.121094 Z M 45.484375 112.125 "/>
<path style=" stroke:none;fill-rule:nonzero;fill:rgb(42.352941%,38.823529%,100%);fill-opacity:1;" d="M 40.644531 133.585938 C 42.925781 134.742188 51.617188 133.945312 51.617188 133.945312 C 51.617188 133.945312 47.085938 126.453125 44.804688 125.300781 C 42.535156 124.207031 39.8125 125.140625 38.679688 127.394531 C 37.542969 129.652344 38.417969 132.402344 40.644531 133.585938 Z M 40.644531 133.585938 "/>
<path style=" stroke:none;fill-rule:nonzero;fill:rgb(42.352941%,38.823529%,100%);fill-opacity:1;" d="M 38.792969 155.097656 C 40.84375 156.617188 49.546875 157.308594 49.546875 157.308594 C 49.546875 157.308594 46.34375 149.15625 44.289062 147.632812 C 42.960938 146.632812 41.199219 146.421875 39.675781 147.082031 C 38.152344 147.742188 37.097656 149.175781 36.914062 150.832031 C 36.730469 152.488281 37.445312 154.117188 38.789062 155.097656 Z M 38.792969 155.097656 "/>
<path style=" stroke:none;fill-rule:nonzero;fill:rgb(98.823529%,40%,50.588235%);fill-opacity:1;" d="M 56.835938 91.566406 C 56.835938 94.132812 52.210938 101.554688 52.210938 101.554688 C 52.210938 101.554688 47.585938 94.121094 47.585938 91.566406 C 47.546875 89.882812 48.421875 88.3125 49.867188 87.460938 C 51.3125 86.605469 53.105469 86.605469 54.550781 87.460938 C 56 88.3125 56.871094 89.882812 56.832031 91.566406 Z M 56.835938 91.566406 "/>
<path style=" stroke:none;fill-rule:nonzero;fill:rgb(98.823529%,40%,50.588235%);fill-opacity:1;" d="M 64.484375 105.761719 C 63.097656 107.914062 55.195312 111.628906 55.195312 111.628906 C 55.195312 111.628906 55.335938 102.867188 56.726562 100.71875 C 58.140625 98.636719 60.949219 98.074219 63.054688 99.441406 C 65.160156 100.808594 65.796875 103.613281 64.484375 105.757812 Z M 64.484375 105.761719 "/>
<path style=" stroke:none;fill-rule:nonzero;fill:rgb(98.823529%,40%,50.588235%);fill-opacity:1;" d="M 64.148438 130.019531 C 61.871094 131.171875 53.179688 130.375 53.179688 130.375 C 53.179688 130.375 57.707031 122.886719 59.988281 121.734375 C 62.257812 120.640625 64.984375 121.574219 66.117188 123.828125 C 67.25 126.085938 66.378906 128.835938 64.152344 130.019531 Z M 64.148438 130.019531 "/>
<path style=" stroke:none;fill-rule:nonzero;fill:rgb(98.823529%,40%,50.588235%);fill-opacity:1;" d="M 59.78125 148.316406 C 57.726562 149.839844 49.023438 150.527344 49.023438 150.527344 C 49.023438 150.527344 52.230469 142.378906 54.28125 140.855469 C 55.609375 139.851562 57.367188 139.640625 58.894531 140.300781 C 60.417969 140.964844 61.472656 142.394531 61.65625 144.050781 C 61.839844 145.707031 61.121094 147.335938 59.78125 148.316406 Z M 59.78125 148.316406 "/>
<path style=" stroke:none;fill-rule:nonzero;fill:rgb(98.823529%,40%,50.588235%);fill-opacity:1;" d="M 45.484375 112.125 C 47.316406 113.910156 55.851562 115.761719 55.851562 115.761719 C 55.851562 115.761719 53.761719 107.253906 51.929688 105.46875 C 50.089844 103.753906 47.222656 103.832031 45.472656 105.640625 C 43.722656 107.445312 43.730469 110.324219 45.488281 112.121094 Z M 45.484375 112.125 "/>
<path style=" stroke:none;fill-rule:nonzero;fill:rgb(98.823529%,40%,50.588235%);fill-opacity:1;" d="M 40.644531 133.585938 C 42.925781 134.742188 51.617188 133.945312 51.617188 133.945312 C 51.617188 133.945312 47.085938 126.453125 44.804688 125.300781 C 42.535156 124.207031 39.8125 125.140625 38.679688 127.394531 C 37.542969 129.652344 38.417969 132.402344 40.644531 133.585938 Z M 40.644531 133.585938 "/>
<path style=" stroke:none;fill-rule:nonzero;fill:rgb(98.823529%,40%,50.588235%);fill-opacity:1;" d="M 38.792969 155.097656 C 40.84375 156.617188 49.546875 157.308594 49.546875 157.308594 C 49.546875 157.308594 46.34375 149.15625 44.289062 147.632812 C 42.960938 146.632812 41.199219 146.421875 39.675781 147.082031 C 38.152344 147.742188 37.097656 149.175781 36.914062 150.832031 C 36.730469 152.488281 37.445312 154.117188 38.789062 155.097656 Z M 38.792969 155.097656 "/>
</g>
</svg>
